<?xml version="1.0" encoding="UTF-8" standalone="no"?><!-- Generator: Gravit.io --><svg xmlns="http://www.w3.org/2000/svg" xmlns:xlink="http://www.w3.org/1999/xlink" style="isolation:isolate" viewBox="0 0 128 128" width="128pt" height="128pt"><defs><clipPath id="_clipPath_tplw9JuIO9kmARQP6ddHruu6wLLMffMv"><rect width="128" height="128"/></clipPath></defs><g clip-path="url(#_clipPath_tplw9JuIO9kmARQP6ddHruu6wLLMffMv)"><path d="M 16 0 L 112 0 C 120.831 0 128 7.169 128 16 L 128 112 C 128 120.831 120.831 128 112 128 L 16 128 C 7.169 128 0 120.831 0 112 L 0 16 C 0 7.169 7.169 0 16 0 Z" style="stroke:none;fill:#464646;stroke-miterlimit:10;"/><g><rect x="17.789" y="81.856" width="25" height="5.527" transform="matrix(-0.707,0.707,-0.707,-0.707,111.541,123.037)" fill="rgb(255,255,255)"/><rect x="34.86" y="74.785" width="5" height="5.527" transform="matrix(-0.707,0.707,-0.707,-0.707,118.612,105.966)" fill="rgb(162,162,162)"/></g><g><rect x="23.707" y="88.004" width="25" height="5.527" transform="matrix(-0.707,0.707,-0.707,-0.707,125.991,129.347)" fill="rgb(255,255,255)"/><rect x="40.778" y="80.933" width="5" height="5.527" transform="matrix(-0.707,0.707,-0.707,-0.707,133.063,112.276)" fill="rgb(162,162,162)"/></g><g><rect x="29.789" y="93.856" width="25" height="5.527" transform="matrix(-0.707,0.707,-0.707,-0.707,140.511,135.037)" fill="rgb(255,255,255)"/><rect x="46.86" y="86.785" width="5" height="5.527" transform="matrix(-0.707,0.707,-0.707,-0.707,147.583,117.966)" fill="rgb(162,162,162)"/></g><g><rect x="84.789" y="81.856" width="25" height="5.527" transform="matrix(-0.707,-0.707,0.707,-0.707,106.247,213.248)" fill="rgb(255,255,255)"/><rect x="87.718" y="74.785" width="5" height="5.527" transform="matrix(-0.707,-0.707,0.707,-0.707,99.176,196.177)" fill="rgb(162,162,162)"/></g><g><rect x="78.87" y="88.004" width="25" height="5.527" transform="matrix(-0.707,-0.707,0.707,-0.707,91.796,219.558)" fill="rgb(255,255,255)"/><rect x="81.799" y="80.933" width="5" height="5.527" transform="matrix(-0.707,-0.707,0.707,-0.707,84.725,202.486)" fill="rgb(162,162,162)"/></g><g><rect x="72.789" y="93.856" width="25" height="5.527" transform="matrix(-0.707,-0.707,0.707,-0.707,77.277,225.248)" fill="rgb(255,255,255)"/><rect x="75.718" y="86.785" width="5" height="5.527" transform="matrix(-0.707,-0.707,0.707,-0.707,70.205,208.177)" fill="rgb(162,162,162)"/></g><g><rect x="69.5" y="25.5" width="25" height="12" transform="matrix(0,1,-1,0,113.5,-50.5)" fill="rgb(255,255,255)"/><rect x="79.5" y="35.5" width="5" height="12" transform="matrix(0,1,-1,0,123.5,-40.5)" fill="rgb(162,162,162)"/></g><g><rect x="33.5" y="25.5" width="25" height="12" transform="matrix(0,1,-1,0,77.5,-14.5)" fill="rgb(255,255,255)"/><rect x="43.5" y="35.5" width="5" height="12" transform="matrix(0,1,-1,0,87.5,-4.5)" fill="rgb(162,162,162)"/></g><g><rect x="51.5" y="25.5" width="25" height="12" transform="matrix(0,1,-1,0,95.5,-32.5)" fill="rgb(255,255,255)"/><rect x="61.5" y="35.5" width="5" height="12" transform="matrix(0,1,-1,0,105.5,-22.5)" fill="rgb(162,162,162)"/></g><path d=" M 36 75 L 36 44 L 92 44 L 92 75 L 75.5 91 L 52 91 L 36 75 Z " fill="rgb(255,255,255)"/><path d=" M 62.989 67.867 L 56.51 67.867 L 56.51 80.044 L 63.301 80.044 L 63.301 80.044 Q 67.241 80.044 69.234 78.519 L 69.234 78.519 L 69.234 78.519 Q 71.226 76.994 71.226 73.744 L 71.226 73.744 L 71.226 73.744 Q 71.226 70.716 69.189 69.291 L 69.189 69.291 L 69.189 69.291 Q 67.152 67.867 62.989 67.867 L 62.989 67.867 L 62.989 67.867 L 62.989 67.867 Z  M 70.82 66.05 C 71.143 66.174 71.447 66.307 71.761 66.449 C 72.653 66.867 73.47 67.456 74.145 68.178 C 74.477 68.529 74.772 68.919 75.019 69.327 C 75.275 69.745 75.494 70.182 75.665 70.638 C 75.855 71.141 75.988 71.654 76.083 72.186 C 76.178 72.785 76.225 73.402 76.225 74.01 C 76.225 74.818 76.149 75.615 75.997 76.404 C 75.864 77.088 75.646 77.753 75.361 78.399 C 75.085 78.997 74.743 79.567 74.344 80.089 C 73.926 80.631 73.461 81.125 72.938 81.552 C 72.425 81.98 71.865 82.35 71.276 82.664 C 70.64 83.006 69.965 83.29 69.272 83.509 C 68.512 83.746 67.733 83.917 66.954 84.031 C 66.004 84.155 65.045 84.221 64.076 84.221 L 51.775 84.221 L 51.775 49.779 L 61.92 49.779 C 62.889 49.779 63.867 49.807 64.836 49.883 C 65.586 49.94 66.346 50.035 67.087 50.159 C 68.047 50.33 68.987 50.577 69.899 50.909 C 70.583 51.146 71.229 51.469 71.818 51.868 C 72.34 52.22 72.815 52.628 73.223 53.094 C 73.632 53.55 73.974 54.053 74.249 54.595 C 74.544 55.183 74.762 55.81 74.895 56.456 C 75.057 57.216 75.133 58.005 75.133 58.784 C 75.133 59.334 75.095 59.876 75.009 60.417 C 74.933 60.902 74.81 61.377 74.648 61.833 C 74.496 62.26 74.306 62.678 74.078 63.077 C 73.85 63.466 73.584 63.837 73.29 64.179 C 73.005 64.511 72.682 64.825 72.34 65.1 C 71.979 65.395 71.59 65.651 71.181 65.87 C 71.067 65.936 70.944 65.993 70.82 66.05 L 70.82 66.05 L 70.82 66.05 L 70.82 66.05 Z  M 56.51 53.997 L 56.51 64.661 L 62.744 64.661 L 62.744 64.661 Q 66.751 64.661 68.51 63.403 L 68.51 63.403 L 68.51 63.403 Q 70.269 62.145 70.269 59.162 L 70.269 59.162 L 70.269 59.162 Q 70.269 56.423 68.31 55.21 L 68.31 55.21 L 68.31 55.21 Q 66.351 53.997 62.076 53.997 L 62.076 53.997 L 56.51 53.997 Z " fill-rule="evenodd" fill="rgb(70,70,70)"/></g></svg>