<?xml version="1.0" encoding="UTF-8" standalone="no"?><!-- Generator: Gravit.io --><svg xmlns="http://www.w3.org/2000/svg" xmlns:xlink="http://www.w3.org/1999/xlink" style="isolation:isolate" viewBox="0 0 128 128" width="128pt" height="128pt"><defs><clipPath id="_clipPath_XjkfvpTEWRNXAHnF57igjfmEZp9NqY2x"><rect width="128" height="128"/></clipPath></defs><g clip-path="url(#_clipPath_XjkfvpTEWRNXAHnF57igjfmEZp9NqY2x)"><path d="M 16 0 L 112 0 C 120.831 0 128 7.169 128 16 L 128 112 C 128 120.831 120.831 128 112 128 L 16 128 C 7.169 128 0 120.831 0 112 L 0 16 C 0 7.169 7.169 0 16 0 Z" style="stroke:none;fill:#1E70EB;stroke-miterlimit:10;"/><g><rect x="91" y="81.056" width="25" height="12" transform="matrix(1,0,0,1,0,0)" fill="rgb(255,255,255)"/><rect x="91" y="81.056" width="5" height="12" transform="matrix(1,0,0,1,0,0)" fill="rgb(177,205,248)"/></g><g><rect x="91" y="60.528" width="25" height="12" transform="matrix(1,0,0,1,0,0)" fill="rgb(255,255,255)"/><rect x="91" y="60.528" width="5" height="12" transform="matrix(1,0,0,1,0,0)" fill="rgb(177,205,248)"/></g><g><rect x="91" y="40" width="25" height="12" transform="matrix(1,0,0,1,0,0)" fill="rgb(255,255,255)"/><rect x="91" y="40" width="5" height="12" transform="matrix(1,0,0,1,0,0)" fill="rgb(177,205,248)"/></g><g><rect x="12" y="40" width="25" height="12" transform="matrix(1,0,0,1,0,0)" fill="rgb(255,255,255)"/><rect x="32" y="40" width="5" height="12" transform="matrix(1,0,0,1,0,0)" fill="rgb(177,205,248)"/></g><rect x="36" y="28" width="56" height="72" transform="matrix(1,0,0,1,0,0)" fill="rgb(255,255,255)"/><path d=" M 49.401 87.528 L 49.401 40.472 L 49.401 87.528 Z  M 78.599 40.472 L 78.599 45.332 L 78.599 40.472 Z  M 79.6 81.64 L 79.6 88.53 L 48.4 88.53 L 48.4 39.47 L 79.6 39.47 L 79.6 46.33 L 56.49 46.33 L 56.49 59.49 L 78.2 59.49 L 78.2 66.32 L 56.49 66.32 L 56.49 81.64 L 79.6 81.64 L 79.6 81.64 Z " fill-rule="evenodd" fill="rgb(30,112,235)"/></g></svg>