<?xml version="1.0" encoding="UTF-8" standalone="no"?><!-- Generator: Gravit.io --><svg xmlns="http://www.w3.org/2000/svg" xmlns:xlink="http://www.w3.org/1999/xlink" style="isolation:isolate" viewBox="0 0 128 128" width="128pt" height="128pt"><defs><clipPath id="_clipPath_vkf0KEZKO6dTlBDIuK79fwgYh8Lx0Qr4"><rect width="128" height="128"/></clipPath></defs><g clip-path="url(#_clipPath_vkf0KEZKO6dTlBDIuK79fwgYh8Lx0Qr4)"><path d="M 16 0 L 112 0 C 120.831 0 128 7.169 128 16 L 128 112 C 128 120.831 120.831 128 112 128 L 16 128 C 7.169 128 0 120.831 0 112 L 0 16 C 0 7.169 7.169 0 16 0 Z" style="stroke:none;fill:#1E70EB;stroke-miterlimit:10;"/><g><g><rect x="54" y="79" width="24" height="24" transform="matrix(1,0,0,1,0,0)" fill="rgb(255,255,255)"/><path d=" M 22 87 L 62 87 L 62 95 L 22 95 L 22 87 Z " fill="rgb(255,255,255)"/></g><path d=" M 70 37 L 70 87 L 62 87 L 62 37 L 70 37 Z " fill="rgb(255,255,255)"/><g><rect x="54" y="25" width="24" height="24" transform="matrix(0,1,-1,0,103,-29)" fill="rgb(255,255,255)"/><path d=" M 66 33 L 106 33 L 106 41 L 66 41 L 66 33 Z " fill="rgb(255,255,255)"/></g></g></g></svg>