<?xml version="1.0" encoding="UTF-8" standalone="no"?><!-- Generator: Gravit.io --><svg xmlns="http://www.w3.org/2000/svg" xmlns:xlink="http://www.w3.org/1999/xlink" style="isolation:isolate" viewBox="0 0 128 128" width="128pt" height="128pt"><defs><clipPath id="_clipPath_XOqpM29xbqAzsNPqGz3a0pamag2bXYon"><rect width="128" height="128"/></clipPath></defs><g clip-path="url(#_clipPath_XOqpM29xbqAzsNPqGz3a0pamag2bXYon)"><path d="M 16 0 L 112 0 C 120.831 0 128 7.169 128 16 L 128 112 C 128 120.831 120.831 128 112 128 L 16 128 C 7.169 128 0 120.831 0 112 L 0 16 C 0 7.169 7.169 0 16 0 Z" style="stroke:none;fill:#1E70EB;stroke-miterlimit:10;"/><g><path d=" M 104 40 L 104 24 L 88 24 L 88 28 L 40 28 L 40 24 L 24 24 L 24 40 L 28 40 L 28 88 L 24 88 L 24 104 L 40 104 L 40 100 L 88 100 L 88 104 L 104 104 L 104 88 L 100 88 L 100 40 L 104 40 Z  M 92 88 L 88 88 L 88 92 L 40 92 L 40 88 L 36 88 L 36 40 L 40 40 L 40 36 L 88 36 L 88 40 L 92 40 L 92 88 Z " fill="rgb(255,255,255)"/><rect x="44" y="44" width="24" height="24" transform="matrix(1,0,0,1,0,0)" fill="rgb(255,255,255)"/><path d=" M 72 60 L 72 72 L 60 72 L 60 84 L 84 84 L 84 60 L 72 60 Z " fill="rgb(255,255,255)"/></g></g></svg>