<?xml version="1.0" encoding="UTF-8" standalone="no"?><!-- Generator: Gravit.io --><svg xmlns="http://www.w3.org/2000/svg" xmlns:xlink="http://www.w3.org/1999/xlink" style="isolation:isolate" viewBox="0 0 128 128" width="128pt" height="128pt"><defs><clipPath id="_clipPath_6ctEwc0qn8gvI33GFcldBO7uKlUrpq0y"><rect width="128" height="128"/></clipPath></defs><g clip-path="url(#_clipPath_6ctEwc0qn8gvI33GFcldBO7uKlUrpq0y)"><path d="M 16 0 L 112 0 C 120.831 0 128 7.169 128 16 L 128 112 C 128 120.831 120.831 128 112 128 L 16 128 C 7.169 128 0 120.831 0 112 L 0 16 C 0 7.169 7.169 0 16 0 Z" style="stroke:none;fill:#464646;stroke-miterlimit:10;"/><g><path d=" M 64 84.643 L 95.071 84.643 L 95.071 84.643 L 95.071 109.5 L 64 109.5 L 32.929 109.5 L 32.929 84.643 L 64 84.643 L 64 84.643 Z  M 90.411 89.304 L 68.661 89.304 L 68.661 104.839 L 90.411 104.839 L 90.411 89.304 L 90.411 89.304 Z " fill-rule="evenodd" fill="rgb(255,255,255)"/><path d=" M 64 51.571 L 95.071 51.571 L 95.071 51.571 L 95.071 76.429 L 64 76.429 L 32.929 76.429 L 32.929 51.571 L 64 51.571 L 64 51.571 Z  M 90.411 56.232 L 68.661 56.232 L 68.661 71.768 L 90.411 71.768 L 90.411 56.232 L 90.411 56.232 Z " fill-rule="evenodd" fill="rgb(255,255,255)"/><path d=" M 64 18.5 L 32.929 18.5 L 32.929 18.5 L 32.929 43.357 L 64 43.357 L 95.071 43.357 L 95.071 18.5 L 64 18.5 L 64 18.5 Z  M 37.589 23.161 L 59.339 23.161 L 59.339 38.696 L 37.589 38.696 L 37.589 23.161 L 37.589 23.161 Z " fill-rule="evenodd" fill="rgb(255,255,255)"/></g></g></svg>