<?xml version="1.0" encoding="UTF-8" standalone="no"?><!-- Generator: Gravit.io --><svg xmlns="http://www.w3.org/2000/svg" xmlns:xlink="http://www.w3.org/1999/xlink" style="isolation:isolate" viewBox="0 0 128 128" width="128pt" height="128pt"><defs><clipPath id="_clipPath_splMuJIOoHDbmNa64LOPHH0Ns5FTJkum"><rect width="128" height="128"/></clipPath></defs><g clip-path="url(#_clipPath_splMuJIOoHDbmNa64LOPHH0Ns5FTJkum)"><path d="M 16 0 L 112 0 C 120.831 0 128 7.169 128 16 L 128 112 C 128 120.831 120.831 128 112 128 L 16 128 C 7.169 128 0 120.831 0 112 L 0 16 C 0 7.169 7.169 0 16 0 Z" style="stroke:none;fill:#1E70EB;stroke-miterlimit:10;"/><path d=" M 64 48 L 24 48 L 24 48 L 24 80 L 64 80 L 104 80 L 104 48 L 64 48 L 64 48 Z  M 30 54 L 58 54 L 58 74 L 30 74 L 30 54 L 30 54 Z " fill-rule="evenodd" fill="rgb(255,255,255)"/></g></svg>